<svg width="16" height="11" viewBox="0 0 16 11" fill="none" xmlns="http://www.w3.org/2000/svg">
<path d="M9.46584 5.50008L15.6959 1.21668C16.1014 0.938066 16.1014 0.48758 15.6959 0.208963C15.2907 -0.0696543 14.6354 -0.0696543 14.2302 0.208963L7.99991 4.49236L1.76983 0.208963C1.36438 -0.0696543 0.709335 -0.0696543 0.304082 0.208963C-0.101361 0.48758 -0.101361 0.938066 0.304082 1.21668L6.53416 5.50008L0.304082 9.78348C-0.101361 10.0621 -0.101361 10.5126 0.304082 10.7912C0.506044 10.9302 0.771594 11 1.03695 11C1.30231 11 1.56767 10.9302 1.76983 10.7912L7.99991 6.5078L14.2302 10.7912C14.4323 10.9302 14.6977 11 14.963 11C15.2284 11 15.4938 10.9302 15.6959 10.7912C16.1014 10.5126 16.1014 10.0621 15.6959 9.78348L9.46584 5.50008Z" fill="black"/>
</svg>
